<?xml version="1.0" standalone="no"?><!DOCTYPE svg PUBLIC "-//W3C//DTD SVG 1.1//EN" "http://www.w3.org/Graphics/SVG/1.1/DTD/svg11.dtd"><svg t="1710751880675" class="icon" viewBox="0 0 1024 1024" version="1.1" xmlns="http://www.w3.org/2000/svg" p-id="5325" xmlns:xlink="http://www.w3.org/1999/xlink" width="128" height="128"><path d="M507.806955 1017.113161l-50.934063-2.390097-49.141237-7.430457-48.782874-12.62874-45.35717-16.434065-44.161616-21.333713-41.154002-24.740183-38.943086-29.400922L153.99673 870.604591l-32.269848-35.217735-28.982832-38.762893-25.297973-41.034548-21.154532-43.264697-23.744056-69.658005-9.960254-49.301184-5.238776-50.296298-0.677245-25.297973 2.270642-50.814608 7.549911-49.699027 12.469805-48.204837 16.354092-45.516105 21.432921-44.181862 25.437674-41.512364 28.644716-38.484504 32.289082-35.436397 35.316942-32.269848 38.484504-28.943351 41.253209-25.3577 43.583579-21.214259 69.239915-23.664082 49.200964-9.960254 50.456246-5.259022 26.234373-0.716725 49.878209 2.290889 49.738508 7.569145 48.484239 12.549779 45.316677 16.333845 44.24159 21.273986 41.413157 25.337454 56.332786 44.062408 34.341062 34.221608 30.516503 36.631951 26.990579 40.117382 23.285473 42.408271 19.242252 45.098015 14.680721 46.990049 10.139436 48.185603 5.238776 50.536219 0.41809 26.2941-2.33037 50.715401-7.609638 49.799247-12.031469 47.348411-16.911882 46.292558-21.234505 43.683799-24.879883 41.173236-28.843131 38.82262-32.150393 35.376669-36.094407 32.58873-37.448896 28.704443-41.413157 25.178519-43.86298 21.353959-45.913949 16.772182-47.886968 12.62874-49.280938 7.609638L507.806955 1017.113161zM506.911048 85.895679l-45.277197 2.130942L398.489138 99.540792l-60.017644 20.557261-55.495594 28.743924-50.277064 36.193615-45.25695 43.185736-26.234373 31.791018-33.624337 52.587187-18.266372 37.548104-20.197886 60.336527-11.23477 63.583049-1.892033 43.703033 2.151188 44.260824 11.473679 63.105232 20.656468 60.555188 28.66395 55.097751 36.154134 50.316545 43.185736 45.176977 48.822355 38.445023 54.340532 31.054047 38.225349 15.936002 40.97482 12.967869 63.483841 11.115316 43.683799 1.992253 44.201097-2.231162 63.144713-11.413951 60.355761-20.596741 37.348676-18.225879 35.93446-21.792296 48.782874-38.82262 42.408271-44.739653 24.540755-33.085781 31.333448-54.579441 16.274118-38.464257 12.449559-40.277329 8.744453-42.32931 4.283142-43.284943 0.179181-21.512894-2.091461-44.361044-6.652992-42.647179-10.637499-41.312937-14.680721-39.759019-28.863378-55.475347-23.266239-34.600217-40.555718-46.312804-47.329177-40.814873-52.48798-33.803518-37.648324-18.126671-60.336527-20.218132-63.583049-11.23477L506.911048 85.895679z" fill="#D80B18" p-id="5326"></path><path d="M274.357987 266.877926 274.357987 481.896525 419.534339 481.896525 419.534339 551.753958 274.357987 551.753958 274.357987 766.777619 506.902949 766.777619 506.902949 699.154385 346.824178 699.154385 346.824178 624.219136 489.381648 624.219136 489.381648 409.514357 346.824178 409.514357 346.824178 336.721186 506.902949 336.721186 506.902949 266.877926Z" fill="#D80B18" p-id="5327"></path><path d="M757.132197 266.877926 757.132197 481.896525 612.270678 481.896525 612.270678 551.753958 757.132197 551.753958 757.132197 766.777619 524.653036 766.777619 524.653036 699.154385 684.735857 699.154385 684.735857 624.219136 542.179399 624.219136 542.179399 409.514357 684.735857 409.514357 684.735857 336.721186 524.653036 336.721186 524.653036 266.877926Z" fill="#D80B18" p-id="5328"></path></svg>