<?xml version="1.0" standalone="no"?><!DOCTYPE svg PUBLIC "-//W3C//DTD SVG 1.1//EN" "http://www.w3.org/Graphics/SVG/1.1/DTD/svg11.dtd"><svg t="1710751866765" class="icon" viewBox="0 0 1024 1024" version="1.1" xmlns="http://www.w3.org/2000/svg" p-id="4330" xmlns:xlink="http://www.w3.org/1999/xlink" width="128" height="128"><path d="M512 512m-512 0a512 512 0 1 0 1024 0 512 512 0 1 0-1024 0Z" fill="#FFFFFF" p-id="4331"></path><path d="M481.010526 85.854316s77.015579-59.445895 209.488842-16.168421c0 0 44.570947 16.168421 95.959579 62.140631l159.474527 167.612632-85.126737 85.153684-243.334737-247.376842S576.943158 87.255579 481.010526 85.881263z m351.447579 328.461473l-100.028631 97.306948s-16.276211 22.986105-29.776842 1.374316l-183.781053-179.792842s-16.276211-21.611789-28.456421-2.694737l-185.155369 189.251368s-12.153263 18.917053 2.694737 27.028211l181.140211 181.086315s14.821053 24.333474 28.402526 5.443369l187.823158-189.224421s5.443368-16.249263 35.193263-12.180211H932.378947s8.138105 194.640842-140.530526 316.254316c0 0-193.239579 193.320421-458.213053 74.34779 0 0-255.461053-89.195789-252.793263-420.352 0 0 6.763789-221.669053 208.222316-339.267369 0 0 147.294316-109.487158 264.892632-28.375579l278.474105 279.794526z" fill="#003B8F" p-id="4332"></path></svg>