<?xml version="1.0" standalone="no"?><!DOCTYPE svg PUBLIC "-//W3C//DTD SVG 1.1//EN" "http://www.w3.org/Graphics/SVG/1.1/DTD/svg11.dtd"><svg t="1710751997111" class="icon" viewBox="0 0 1024 1024" version="1.1" xmlns="http://www.w3.org/2000/svg" p-id="6328" xmlns:xlink="http://www.w3.org/1999/xlink" width="128" height="128"><path d="M803.38944 761.344c-59.65824 1.90464-114.81088 3.82976-174.44864 5.75488-37.7856 160.50176-350.208 117.1456-315.392-86.50752 17.48992-120.64768 180.71552-173.3632 282.0096-82.24768 22.2208 25.10848 33.13664 48.45568 40.28416 99.55328 50.03264-1.90464 117.5552-3.82976 167.54688-5.75488 2.53952-259.54304-292.59776-391.2704-513.92512-265.3184-212.1728 120.70912-187.67872 488.57088 34.65216 582.51264v5.81632C202.87488 1012.736 69.89824 918.9376 40.96 807.48544L42.5984 209.1008C138.81344 143.72864 245.18656 65.37216 341.4016 0l11.59168 5.79584c-6.67648 90.19392-2.4576 238.94016 2.8672 347.48416 60.29312-58.42944 100.92544-119.56224 205.0048-139.8784 67.072-13.06624 131.2768-5.18144 171.78624 8.66304 304.08704 104.0384 323.01056 496.49664 64.96256 631.56224-5.77536 0-18.3296 11.34592-27.93472 13.25056 0-1.92512 6.08256-10.24 10.60864-19.00544l23.08096-86.528z" fill="#1D2087" p-id="6329"></path></svg>