<?xml version="1.0" standalone="no"?><!DOCTYPE svg PUBLIC "-//W3C//DTD SVG 1.1//EN" "http://www.w3.org/Graphics/SVG/1.1/DTD/svg11.dtd"><svg t="1710750549001" class="icon" viewBox="0 0 1024 1024" version="1.1" xmlns="http://www.w3.org/2000/svg" p-id="2352" xmlns:xlink="http://www.w3.org/1999/xlink" width="128" height="128"><path d="M465.818158 2.175524l23.674821-2.175524h47.445622l21.563283 2.175524v313.979317l-2.175524 2.175524-2.143531 4.287062h-2.143532l-2.175524 2.143532-6.462586 2.143531H483.030393l-6.430593-2.143531-2.23951-2.143532h-4.287063V318.330365l-2.143531-2.175524-2.143531-8.606117V2.175524z m217.64839 507.568969v152.702597l-2.143531 4.287062-2.175525 2.175524-2.111538 4.287062h-4.319055l-4.287062 2.143531-8.670103 2.175524h-90.540195v240.875309l19.419752-4.319055 19.419752-2.143531 17.276221-6.430594 17.244228-4.319055 8.606117-2.143531 8.574125-4.319055 17.27622-6.430593 17.244228-8.606118 15.100697-8.606117 17.180242-8.606118 15.132689-8.606117 12.89318-10.749649 15.100697-10.749648 27.993876-23.674821 12.957166-12.89318 10.781641-12.89318 12.957166-15.03671 10.749648-12.925173 10.781642-15.036711 8.63811-15.100696 8.574125-17.180242 8.63811-15.036711 8.638111-17.212235 6.430593-17.212235 10.813634-34.424469 6.462587-17.212235 2.143531-19.355766 4.287062-17.180242 2.23951-19.387759 2.143531-38.711532-2.175524-30.073421-2.207517-15.068704v-15.03671l-6.430593-30.137408-8.638111-30.105414-4.287062-12.925173-4.351048-12.89318-10.749649-27.961883-15.100696-25.786359-12.89318-25.818352-17.276221-21.499297-19.387759-23.674821-19.419752-21.499298-21.563283-19.355765-21.499297-17.212235-23.7708-17.180242-25.786359-15.036711-25.914331-12.957165V490.452713l-2.143531 4.287063-2.175525 2.175524-2.143531 4.255069-4.287062 2.207517h-4.287062l-8.670103 2.111538H532.619545l-2.143531 2.175524-2.175524 2.143531v-148.447527l2.175524-4.319055 2.143531-4.255069 4.319056-2.175524h58.227262l8.574125-2.143531 6.430593-2.175524 4.319055-2.143532 4.383042-6.462586V10.781642l43.030587 12.861186 21.563283 6.462586 19.419752 6.430594 21.563283 8.63811 19.387759 10.749649 19.419752 8.606117 17.180241 10.749649 19.419752 12.893179 17.276221 10.781642 17.244228 12.861186 15.036711 15.036711 17.27622 15.068704 15.100697 15.100697 27.993877 30.073421 12.957165 17.244228 12.89318 17.180242 10.749648 19.355766 10.813635 17.212234 21.563283 38.711532 8.606117 19.323773 6.49458 21.53129 12.893179 40.855063 6.462586 21.53129 4.351049 21.499297 2.143531 21.53129 4.319055 23.642828v70.992471l-2.175524 25.818352-2.143531 25.786359-4.351048 25.818352-6.430594 23.674822-6.462586 25.786359-8.606117 23.674821-8.638111 21.499297-10.781641 23.674821-10.781642 21.467304-12.89318 21.499297-12.957165 21.53129-15.036711 19.323773-15.13269 19.387759-15.100696 19.355766-17.212235 17.212235-17.276221 17.180242-19.387759 15.068703-19.419752 15.036711-19.387759 15.068704-21.563283 12.925172-21.563283 12.89318-21.563283 10.749649-23.642828 10.749648-21.563283 8.606117-25.914331 8.638111-23.674821 6.3986-23.674822 6.462586-25.914331 4.319056-25.850345 2.143531-25.850345 2.143531-25.850345 2.175524-25.850346-2.175524-25.850345-2.111538-25.882338-2.175524-25.850345-4.287063-25.850346-6.462586-23.706814-6.430593-23.674821-8.638111-23.738807-8.574124-21.563283-10.781641-21.563283-10.717656-21.563283-12.89318-21.563283-12.925172-19.387759-15.036711-19.419752-15.068704-19.419752-15.068703-17.180242-17.180242-17.276221-17.212235-17.244227-19.387759-15.036711-19.355766-12.957166-19.323773-12.893179-21.53129-12.957166-21.499297-10.749649-21.499297-10.813634-23.674821-8.606117-21.499297-8.670104-23.674821-6.462586-25.818352-6.430593-23.642829-4.287063-25.818352-4.351048-25.786359L0.256 537.706377v-49.461181l2.175524-21.53129 2.143531-23.642828 4.351048-21.499297 4.287063-21.499297 4.287062-21.53129 12.989158-40.855063 8.606118-21.53129 8.574124-19.355766 8.638111-19.323773 10.781641-19.387759 10.813635-17.180241 12.861186-19.355766 12.989159-17.212235 12.89318-17.212235 12.957165-15.036711 15.036711-15.03671 15.13269-15.100697 15.068703-15.036711 34.488456-25.818352 17.276221-12.89318 17.244228-12.893179 19.419752-10.781642 19.323773-8.606117 19.419751-10.749649 19.387759-8.606117 19.419752-6.430594 21.563283-6.462586 21.563283-6.430593 21.53129-6.462586v326.904489l2.175524 4.319055 2.143532 2.143531 6.462586 2.143532 6.430593 2.143531 6.526573 2.175524h58.163276l4.287063 2.143531 4.287062 4.287062v152.702596l-4.287062-4.287062h-127.140189l-8.63811-2.143531h-4.319055l-2.143531-2.175524-4.319055-4.255069-2.111539-2.175524v-4.319056l-2.175524-6.462586V137.633893l-25.850345 12.925172-23.674821 15.036711-23.738807 17.212235-23.674821 17.212235-21.595276 19.355765-19.387759 21.499298-17.276221 23.674821-17.276221 23.674821-15.036711 23.642828-12.957165 25.786359-6.430594 12.925173-4.319055 15.03671-10.781641 27.993877-6.462587 27.961883-6.462586 30.105415-2.143531 15.03671v15.036711L101.609829 511.888024v19.355766l2.143531 19.355766 2.175524 17.180242 2.143531 19.387759 4.287062 19.355766 4.287063 17.180242 6.462586 17.212235 2.23951 8.63811 4.287062 8.574124 6.430593 17.212235 6.462587 17.212235 17.276221 32.248946 21.53129 27.961883 10.749648 15.068704 10.813635 15.03671 12.893179 12.925173 12.957166 12.861187 25.850345 23.674821 15.13269 10.749648 15.036711 10.749649 30.233386 17.244228 17.180242 8.606117 15.100697 8.574125 17.27622 6.462586 17.244228 6.430593 19.355766 4.319055 17.276221 6.462587 17.244228 2.143531 19.419752 4.287062v-240.843316h-90.572188l-8.63811-2.175524-2.175524-2.143531h-4.255069l-4.351048-4.287062-2.111539-2.175524v-4.287062l-2.175524-6.462587v-146.24001l2.175524 2.143531 2.111539 2.143532 6.462586 4.319055 6.462586 2.143531 6.494579 2.143531h122.853126l4.287063 2.143531 4.287062 4.319055v146.24001h32.376917v-141.952947l2.175524-4.287063 2.143531-4.319055 4.287063-2.143531h122.853126l6.462586-2.143531 6.462586-2.143531 6.462586-4.319055 4.287063-4.287063z" fill="#009174" p-id="2353"></path></svg>