<?xml version="1.0" standalone="no"?><!DOCTYPE svg PUBLIC "-//W3C//DTD SVG 1.1//EN" "http://www.w3.org/Graphics/SVG/1.1/DTD/svg11.dtd"><svg t="1710471260180" class="icon" viewBox="0 0 1024 1024" version="1.1" xmlns="http://www.w3.org/2000/svg" p-id="6772" width="128" height="128" xmlns:xlink="http://www.w3.org/1999/xlink"><path d="M512.015222 0c-282.785626 0-512.011709 229.223742-512.011709 511.995316 0 282.789139 229.226083 512.004684 512.011709 512.004684 282.723567 0 511.981265-229.215545 511.981265-512.004684C1023.996487 229.223742 794.787968 0 512.015222 0zM839.659204 482.842654l-63.033543 0-63.025347-0.912155L707.205862 467.313771c1.827823-1.827823 128.80238-0.910984 130.627861 0.913326C838.74822 468.225926 839.659204 471.8804 839.659204 482.842654zM834.179248 442.649286c1.828994 10.048928 10.048928 9.13326-66.685676 9.13326L700.81258 451.782545l-5.48464-16.438697 68.513499 0 68.513499 0L834.179248 442.649286zM793.983538 681.988698c-10.956399 16.438697-19.181016 28.317789-27.399779 39.278871-10.048928 11.879092-33.801257 35.626738-59.376726 55.723423-32.889102 27.405634-87.698028 50.238783-143.422621 60.292394-33.796574 6.389769-82.213388 4.564288-121.493431-3.659159-46.588992-10.048928-106.877873-37.448707-133.36901-62.116704-0.912155-0.914497-5.482298-4.567801-10.047757-8.221105-9.137943-7.30895-37.449878-35.631422-45.674495-46.587821-8.221105-11.879092-19.1857-27.404463-26.491137-39.281213-5.482298-9.139114-15.531225-28.320131-19.1857-38.369058-2.739978-6.394453-9.13326-24.662143-14.614386-43.850185-1.828994-4.561946-2.739978-10.954057-8.221105-47.495292-3.654475-21.926849-2.738807-55.725764 1.828994-90.436835 0-6.394453 9.136772-40.189855 14.616728-55.723423 1.828994-4.565459 3.650962-10.048928 15.527712-37.451048 35.626738-73.991113 116.92563-144.333605 192.745737-166.256942 14.613216-3.655646 40.194539-10.045415 75.820107-14.614386 13.704573-0.912155 58.465742 0 76.735774 2.74232 90.435664 12.786564 174.475704 66.683334 225.633668 144.331264 17.349681 26.489966 38.365545 73.078958 40.194539 89.523509l-68.515841 0.910984c-77.645588 0-71.253477 0.913326-73.988771-5.482298-2.745833-8.221105-10.047757-27.405634-14.614386-36.538893-1.828994-5.483469-3.654475-10.050098-54.811267-137.940324-3.659159-9.134431-9.142627-21.01001-10.054782-21.01001-1.827823 0-15.531225 31.972264-19.181016 44.763511 0 0.912155-1.827823 4.56663-51.155622 127.891396C520.852236 429.862722 514.462467 442.649286 513.542116 442.649286c-0.907471 0-3.653304-5.48464-5.482298-11.877921-2.739978-5.482298-6.389769-13.698719-69.425654-167.167926 0-0.915668-17.354364-41.109036-18.270032-42.024704-0.913326-0.909813-7.306608 12.790076-10.046586 20.097855-1.828994 4.56663-8.221105 20.097855-147.074754 361.744998 0 0.914497-10.045415 24.662143-13.698719 35.626738-3.649791 8.221105-3.649791 8.221105 3.653304 18.271203 3.655646 4.564288 6.394453 9.134431 55.722252 79.479265 2.739978 4.561946 5.48581 8.217592 6.393282 9.129747 2.743491 1.823139 388.237306 2.74232 392.806277 0.909813 2.743491-0.909813 5.48581-4.564288 16.446893-21.923336 3.647449-4.564288 7.301924-10.961083 45.673324-67.59666 8.221105-12.788905 8.221105-11.872067 3.654475-21.92802-1.828994-5.477614-3.654475-10.046586-3.654475-10.956399 0.909813-1.827823 50.237612-1.827823 50.237612 0.907471C820.475846 630.830734 803.123824 668.285295 793.983538 681.988698zM668.835633 644.535307l0 1.825481-185.4403 0.912155c-157.118998 0-185.434445 0-186.348942-0.912155 0-0.914497 1.827823-5.482298 3.654475-10.048928 1.826652-4.564288 3.654475-9.136772 84.038869-205.536984C390.223204 416.161662 390.223204 416.161662 397.526299 434.428181c2.745833 7.30895 7.30895 19.182187 80.386736 196.401382 4.568972 12.788905 5.482298 12.788905 10.962253-0.912155 1.828994-3.654475 3.655646-9.136772 78.562426-192.749249 4.568972-11.875579 6.396795-15.526541 7.30895-17.350852 2.74232-2.741149 2.74232-2.741149 19.181016 38.366716C599.409979 473.708223 606.717758 490.149262 668.835633 644.535307zM827.785967 605.257607l-0.914497 2.735294-30.139757 0.914497c-33.801257 0-32.88676 0-34.715754-3.652133-0.912155-1.828994-1.825481-5.486981-3.652133-11.879092 0-0.916839 16.44338-0.916839 35.622055-0.912155l36.543577 0L827.785967 605.257607zM834.179248 577.846119l-41.104352 0c-34.713412 0-41.107865 0-42.025875-0.912155-2.739978-3.652133-6.389769-13.703402-5.479956-15.531225 0.912155-0.912155 10.048928-0.912155 45.675666-0.914497l45.673324 0L834.179248 577.846119zM838.74822 544.964042c-1.828994 1.827823-98.660281 1.827823-100.484592 0-1.828994-1.831336-5.482298-13.703402-4.56663-14.614386 0-0.914497 103.224569-0.914497 105.054734 0C840.573701 530.349655 840.573701 543.132706 838.74822 544.964042zM840.573701 513.902762c-0.912155 0.910984-9.134431 0.910984-57.551245 0.910984l-56.634407 0-5.48464-16.442209c1.828994-0.912155 116.930314-0.912155 118.760478 0C841.488198 499.288376 842.402695 511.159272 840.573701 513.902762z" fill="#0e54a8" p-id="6773"></path></svg>