<?xml version="1.0" standalone="no"?><!DOCTYPE svg PUBLIC "-//W3C//DTD SVG 1.1//EN" "http://www.w3.org/Graphics/SVG/1.1/DTD/svg11.dtd"><svg t="1710752008472" class="icon" viewBox="0 0 1024 1024" version="1.1" xmlns="http://www.w3.org/2000/svg" p-id="7296" xmlns:xlink="http://www.w3.org/1999/xlink" width="128" height="128"><path d="M512 34.146462C775.916308 34.146462 989.853538 248.083692 989.853538 512c0 263.916308-213.937231 477.853538-477.853538 477.853538C248.083692 989.853538 34.146462 775.916308 34.146462 512 34.146462 248.083692 248.083692 34.146462 512 34.146462zM138.633846 512c0 188.455385 139.657846 344.300308 321.102769 369.703385v-175.576616H364.859077a84.322462 84.322462 0 0 1-84.322462-84.322461v-219.608616c0-46.552615 37.769846-84.322462 84.322462-84.322461h94.877538V142.296615C278.291692 167.699692 138.633846 323.544615 138.633846 512z m425.629539-369.703385v175.576616h94.877538c46.592 0 84.322462 37.730462 84.322462 84.283077v219.648a84.322462 84.322462 0 0 1-84.322462 84.322461h-94.877538v175.576616c181.444923-25.442462 321.063385-181.248 321.063384-369.703385 0-186.564923-136.822154-341.149538-315.628307-368.915692l-5.435077-0.787693z m52.184615 280.103385h-208.896a22.449231 22.449231 0 0 0-22.449231 21.346462v135.364923a22.488615 22.488615 0 0 0 21.346462 22.44923l1.102769 0.039385h208.896a22.488615 22.488615 0 0 0 22.449231-21.346462v-135.364923a22.449231 22.449231 0 0 0-22.449231-22.488615z" fill="#B81C22" p-id="7297"></path></svg>